# xmcd
#
# Track frame offsets:
#	150
#	13435
#	26557
#	39640
#	52875
#	67247
#	79007
#	93677
#	107752
#	123129
#	138164
#	150794
#	165519
#	178871
#	193461
#	206194
#	219932
#	233579
#	247224
#	260794
#
# Disc length: 3651 seconds
#
# Revision: 0
# Processed by: cddbd v1.5.2PL0 Copyright (c) Steve Scherf et al.
# Submitted via: audiograbber 1.83.01
#
DISCID=210e4114
DTITLE=Charley Patton - This Is The Blues [CD 2)
DYEAR=2008
DGENRE=Country Blues
TTITLE0=Mean Black Cat Blues
TTITLE1=Some Of These Days I'll Be Gone
TTITLE2=You're Gonna Need Somebody When You Die
TTITLE3=Jesus Is A-Dyinf (Bed Maker)
TTITLE4=When Your Way Get Dark
TTITLE5=Circle Round The Moon
TTITLE6=Bird Nest Bound
TTITLE7=Some Summer Day
TTITLE8=Dry Well Blues
TTITLE9=Moon Going Down
TTITLE10=Revenue Man Blues
TTITLE11=High Sheriff Blues
TTITLE12=Stone Pony Blues
TTITLE13=Jersey Bull Blues
TTITLE14=Hang It On The Wall
TTITLE15=Poor Me
TTITLE16=34 Blues
TTITLE17=Love My Stuff
TTITLE18=Troubled 'Bout My Mother
TTITLE19=Oh Death!
EXTD=PR1MO Collection - 2008 (2 CD)
EXTT0=
EXTT1=
EXTT2=
EXTT3=
EXTT4=
EXTT5=
EXTT6=
EXTT7=
EXTT8=
EXTT9=
EXTT10=
EXTT11=
EXTT12=
EXTT13=
EXTT14=
EXTT15=
EXTT16=
EXTT17=
EXTT18=
EXTT19=
PLAYORDER=
